<svg width="136" height="24" viewBox="0 0 136 24" fill="none" xmlns="http://www.w3.org/2000/svg">
<path d="M12.86 10.442L11 6.06L9.13796 10.447L4.39496 10.862L7.99096 13.989L6.92096 18.629L11.006 16.174L15.086 18.626L14.015 13.982L17.608 10.859L12.86 10.443V10.442ZM16.591 20.695L11.006 17.339L5.41596 20.698L6.88196 14.348L1.95996 10.07L8.45096 9.503L11 3.5L13.546 9.498L20.042 10.067L15.124 14.342L16.591 20.695Z" fill="white"/>
<path d="M40.86 10.442L39 6.06L37.138 10.447L32.395 10.862L35.991 13.989L34.921 18.629L39.006 16.174L43.086 18.626L42.015 13.982L45.608 10.859L40.86 10.443V10.442ZM44.591 20.695L39.006 17.339L33.416 20.698L34.882 14.348L29.96 10.07L36.451 9.503L39 3.5L41.546 9.498L48.042 10.067L43.124 14.342L44.591 20.695Z" fill="white"/>
<path d="M68.86 10.442L67 6.06L65.138 10.447L60.395 10.862L63.991 13.989L62.921 18.629L67.006 16.174L71.086 18.626L70.015 13.982L73.608 10.859L68.86 10.443V10.442ZM72.591 20.695L67.006 17.339L61.416 20.698L62.882 14.348L57.96 10.07L64.451 9.503L67 3.5L69.546 9.498L76.042 10.067L71.124 14.342L72.591 20.695Z" fill="white"/>
<path d="M96.86 10.442L95 6.06L93.138 10.447L88.395 10.862L91.991 13.989L90.921 18.629L95.006 16.174L99.086 18.626L98.015 13.982L101.608 10.859L96.86 10.443V10.442ZM100.591 20.695L95.006 17.339L89.416 20.698L90.882 14.348L85.96 10.07L92.451 9.503L95 3.5L97.546 9.498L104.042 10.067L99.124 14.342L100.591 20.695Z" fill="white"/>
<path d="M124.86 10.442L123 6.06L121.138 10.447L116.395 10.862L119.991 13.989L118.921 18.629L123.006 16.174L127.086 18.626L126.015 13.982L129.608 10.859L124.86 10.443V10.442ZM128.591 20.695L123.006 17.339L117.416 20.698L118.882 14.348L113.96 10.07L120.451 9.503L123 3.5L125.546 9.498L132.042 10.067L127.124 14.342L128.591 20.695Z" fill="white"/>
</svg>
