<svg width="22" height="48" viewBox="0 0 22 48" fill="none" xmlns="http://www.w3.org/2000/svg">
<path d="M7.12 33.6C7.12 34.3733 7.2 34.9467 7.36 35.32C7.54667 35.6667 7.86667 35.9067 8.32 36.04C8.8 36.1733 9.54667 36.24 10.56 36.24H15.68C18.32 36.24 19.88 34.5467 20.36 31.16C20.36 31.08 20.4267 31.0533 20.56 31.08C20.72 31.08 20.8 31.12 20.8 31.2C20.56 33.3067 20.44 35.04 20.44 36.4C20.44 36.6133 20.4 36.7733 20.32 36.88C20.24 36.96 20.08 37 19.84 37H1.44C1.38667 37 1.36 36.92 1.36 36.76C1.36 36.6 1.38667 36.52 1.44 36.52C2.48 36.52 3.24 36.4533 3.72 36.32C4.22667 36.1867 4.56 35.9333 4.72 35.56C4.90667 35.16 5 34.56 5 33.76V15.24C5 14.44 4.90667 13.8533 4.72 13.48C4.56 13.1067 4.22667 12.8533 3.72 12.72C3.24 12.56 2.48 12.48 1.44 12.48C1.38667 12.48 1.36 12.4 1.36 12.24C1.36 12.08 1.38667 12 1.44 12L3.4 12.04C4.52 12.0933 5.4 12.12 6.04 12.12C6.76 12.12 7.68 12.0933 8.8 12.04L10.68 12C10.7333 12 10.76 12.08 10.76 12.24C10.76 12.4 10.7333 12.48 10.68 12.48C9.64 12.48 8.86667 12.56 8.36 12.72C7.88 12.8533 7.54667 13.12 7.36 13.52C7.2 13.8933 7.12 14.48 7.12 15.28V33.6Z" fill="#8A8686"/>
<path d="M18.53 24.15C18.53 24.21 18.47 24.24 18.35 24.24C18.25 24.24 18.2 24.21 18.2 24.15C18.2 23.13 17.93 22.32 17.39 21.72C16.85 21.12 16.14 20.82 15.26 20.82H13.19C12.45 20.82 11.9 20.87 11.54 20.97C11.18 21.07 10.93 21.25 10.79 21.51C10.65 21.77 10.58 22.17 10.58 22.71V29.31H13.85C14.87 29.31 15.59 29.16 16.01 28.86C16.43 28.54 16.64 28 16.64 27.24C16.64 27.2 16.7 27.18 16.82 27.18C16.94 27.18 17 27.2 17 27.24L16.97 29.61C16.97 30.19 16.98 30.62 17 30.9L17.03 32.31C17.03 32.35 16.97 32.37 16.85 32.37C16.73 32.37 16.67 32.35 16.67 32.31C16.67 31.41 16.45 30.78 16.01 30.42C15.59 30.06 14.83 29.88 13.73 29.88H10.58V36.45C10.58 37.09 10.67 37.56 10.85 37.86C11.03 38.14 11.37 38.34 11.87 38.46C12.39 38.58 13.21 38.64 14.33 38.64C14.39 38.64 14.42 38.7 14.42 38.82C14.42 38.94 14.39 39 14.33 39C13.51 39 12.87 38.99 12.41 38.97L9.8 38.94L7.82 38.97C7.46 38.99 6.96 39 6.32 39C6.28 39 6.26 38.94 6.26 38.82C6.26 38.7 6.28 38.64 6.32 38.64C7.1 38.64 7.67 38.59 8.03 38.49C8.41 38.39 8.66 38.2 8.78 37.92C8.92 37.62 8.99 37.17 8.99 36.57V22.68C8.99 22.08 8.92 21.64 8.78 21.36C8.66 21.08 8.41 20.89 8.03 20.79C7.67 20.67 7.1 20.61 6.32 20.61C6.28 20.61 6.26 20.55 6.26 20.43C6.26 20.31 6.28 20.25 6.32 20.25H18.2C18.38 20.25 18.47 20.34 18.47 20.52L18.53 24.15Z" fill="white"/>
</svg>
