<svg width="18" height="18" viewBox="0 0 18 18" fill="none" xmlns="http://www.w3.org/2000/svg">
<path d="M15.9489 15.5512L12.7239 12.3262C13.8154 11.131 14.3957 9.55616 14.3407 7.93854C14.2857 6.32092 13.5998 4.78907 12.4297 3.67075C11.2597 2.55244 9.69835 1.93651 8.0799 1.95474C6.46145 1.97297 4.91441 2.62393 3.76982 3.76832C2.62523 4.9127 1.974 6.45962 1.95548 8.07807C1.93696 9.69652 2.55263 11.2579 3.67073 12.4282C4.78883 13.5985 6.32057 14.2847 7.93818 14.3399C9.55578 14.3952 11.1308 13.8152 12.3261 12.7239L15.5512 15.949C15.6039 16.0017 15.6755 16.0314 15.7501 16.0313C15.8247 16.0313 15.8962 16.0017 15.9489 15.9489C16.0017 15.8962 16.0313 15.8246 16.0313 15.75C16.0313 15.6754 16.0016 15.6039 15.9489 15.5512ZM2.53175 8.15627C2.53175 7.04375 2.86165 5.95621 3.47974 5.03118C4.09782 4.10616 4.97632 3.38519 6.00416 2.95944C7.03199 2.5337 8.16299 2.42231 9.25413 2.63935C10.3453 2.85639 11.3476 3.39212 12.1342 4.17879C12.9209 4.96546 13.4566 5.96774 13.6737 7.05888C13.8907 8.15003 13.7793 9.28103 13.3536 10.3089C12.9278 11.3367 12.2069 12.2152 11.2818 12.8333C10.3568 13.4514 9.26927 13.7813 8.15675 13.7813C6.66542 13.7796 5.23566 13.1864 4.18113 12.1319C3.1266 11.0774 2.53343 9.6476 2.53175 8.15627Z" fill="white"/>
</svg>
