<svg width="137" height="121" viewBox="0 0 137 121" fill="none" xmlns="http://www.w3.org/2000/svg">
<line x1="4" y1="60.5" x2="128" y2="60.5" stroke="#43FFD2"/>
<path d="M5.28 37.52C4.72 37.52 4 37.04 3.84 36.56C3.68 36.16 3.84 35.2 4.16 34.88C4.32 34.72 4.56 34.64 4.72 34.8C4.96 34.96 4.8 35.12 4.72 35.28C4.48 35.68 4.16 36.24 4.64 36.64C5.12 37.04 5.6 36.72 6.08 36.48C6.4 36.32 6.64 36.08 6.88 35.92C7.12 35.76 7.12 35.6 6.8 35.52C6.32 35.52 5.84 35.28 5.76 34.8C5.68 34.32 6.16 34 6.56 33.68C7.52 33.04 8.4 33.36 8.8 34.4C8.88 34.64 8.96 34.88 9.2 34.88C10.16 35.04 11.2 34.96 12.24 34.96C12.56 34.96 12.96 34.88 13.36 34.88C13.44 34.88 13.68 34.8 13.68 35.04C13.68 35.2 13.52 35.2 13.36 35.28C11.84 35.44 10.4 35.76 9.04 35.44C8.64 35.36 8.32 35.6 8.08 35.92C7.52 36.56 6.88 36.96 6.16 37.28C5.84 37.44 5.6 37.52 5.28 37.52ZM17.4588 38.08C16.4988 38.08 15.7788 37.6 15.5388 36.64C15.4588 36.32 15.3788 36.48 15.2188 36.56C14.7388 36.88 14.2588 37.2 13.6988 37.52C13.2988 37.84 12.8187 37.84 12.3387 37.52C12.0187 37.28 11.9387 36.96 12.0987 36.56C12.4187 36 12.8187 35.44 13.2988 35.04C13.4588 34.88 13.6188 34.72 13.8588 34.96C14.0988 35.2 14.0188 35.36 13.7788 35.6C13.6188 35.84 13.3788 36.16 13.1387 36.4C13.0587 36.56 12.8987 36.72 13.0587 36.88C13.2188 37.04 13.2988 36.88 13.4588 36.8C14.2588 36.4 14.8188 35.84 15.5388 35.28C15.8587 35.12 16.1788 34.88 16.4988 34.64C16.8188 34.48 17.0588 34.48 17.2188 34.64C17.4588 34.88 17.2988 35.12 17.1388 35.28C16.8988 35.68 16.5788 36.08 16.4988 36.56C16.3388 37.04 16.4988 37.28 17.0588 37.36C17.5388 37.44 17.9388 37.28 18.3388 37.2C19.8588 36.64 21.2188 35.84 22.6588 35.12C22.8988 35.04 23.2188 34.8 23.2988 34.96C23.4588 35.28 23.0588 35.36 22.8188 35.52C21.7788 36.32 20.6588 37.04 19.3788 37.52C18.8188 37.76 18.1788 38.08 17.4588 38.08ZM26.1881 38.72C25.5481 38.64 24.9881 38.48 24.6681 37.92C24.3481 37.28 24.6681 36.8 25.0681 36.32C25.3881 35.92 25.7081 35.44 26.1081 35.04C26.1881 34.88 26.2681 34.8 26.1881 34.64C26.0281 34.56 25.9481 34.64 25.8681 34.72C25.0681 34.96 24.2681 35.2 23.4681 35.36C23.1481 35.44 22.9081 35.44 22.5881 35.36C21.8681 35.12 21.7081 34.72 22.1081 34.08C22.9081 32.8 23.9481 31.76 25.1481 30.8C25.2281 30.72 25.3881 30.64 25.4681 30.56C25.7881 30.4 26.0281 30.48 26.3481 30.72C26.5881 30.88 26.5081 31.2 26.4281 31.44C26.1081 32.16 25.7081 32.8 25.3081 33.44C25.2281 33.6 24.9881 33.76 25.1481 33.92C25.2281 34.08 25.4681 34 25.6281 33.92C26.1881 33.76 26.7481 33.52 27.3081 33.36C27.6281 33.28 27.9481 33.28 28.1081 33.6C28.3481 33.92 28.1081 34.08 27.8681 34.32C26.9881 35.12 26.1881 36.08 25.5481 37.04C25.3881 37.28 25.2281 37.44 25.3081 37.68C25.4681 38 25.7881 38 26.0281 38C27.1481 37.84 28.1881 37.36 29.1481 36.8C30.0281 36.32 30.9081 35.92 31.6281 35.2C31.8681 34.96 32.1881 34.96 32.4281 34.88C32.5881 34.88 32.6681 34.88 32.6681 34.96C32.6681 35.04 32.6681 35.12 32.5881 35.2C30.7481 36.64 28.9081 38.16 26.5881 38.64C26.4281 38.64 26.2681 38.64 26.1881 38.72ZM22.9881 34.64C23.3881 34.64 23.4681 34.24 23.7081 34.08C24.5081 33.44 24.9881 32.56 25.5481 31.76C25.6281 31.68 25.7081 31.52 25.5481 31.44C25.4681 31.36 25.3881 31.44 25.3081 31.52C24.5081 32.24 23.7081 32.8 23.1481 33.68C22.9881 33.84 22.9081 34.08 22.8281 34.32C22.7481 34.48 22.8281 34.64 22.9881 34.64ZM47.1512 53.84C45.8712 53.84 45.3912 53.12 45.6312 52C45.7912 51.12 46.2712 50.4 46.7512 49.68C48.5112 47.04 50.6712 44.72 53.0712 42.72C54.4312 41.68 55.7112 40.56 56.9913 39.44C57.2313 39.28 57.2313 39.04 57.2313 38.8C57.0713 37.76 56.8313 36.8 56.4313 35.84C56.2713 35.44 56.1113 35.04 56.1113 34.64C55.8712 33.52 56.8313 32.4 58.0313 32.56C58.1113 32.56 58.2713 32.56 58.3513 32.64C58.5113 32.64 58.5913 32.72 58.5113 32.8C58.5113 32.96 58.4313 32.96 58.3513 32.96C58.0313 32.96 57.7913 33.04 57.5513 33.12C56.6713 33.6 56.5913 33.92 56.8313 34.88C57.1513 36 57.7113 37.12 57.8713 38.32C57.9513 38.72 58.1913 38.48 58.3513 38.4C59.5513 37.52 60.6713 36.64 61.7913 35.76C62.1913 35.52 62.5913 35.2 62.9913 34.96C63.1513 34.8 63.3113 34.8 63.3913 34.96C63.5513 35.12 63.4713 35.2 63.3913 35.36C63.3113 35.44 63.1513 35.52 63.0713 35.6C61.3913 36.72 59.8713 38 58.2713 39.28C58.1113 39.36 57.9513 39.52 57.9513 39.84C58.1113 42.88 56.9113 45.52 55.0712 47.92C54.0312 49.28 52.8312 50.48 51.5512 51.6C50.4312 52.56 49.1512 53.36 47.7112 53.76C47.4712 53.84 47.2312 53.84 47.1512 53.84ZM46.2712 52.48C46.1912 53.36 46.4312 53.52 47.2312 53.36C47.9512 53.2 48.5112 52.96 49.1512 52.64C51.3912 51.28 53.2312 49.52 54.7512 47.44C56.1113 45.44 57.1513 43.2 57.3113 40.8C57.3113 40.56 57.4713 40.4 57.2313 40.24C56.9913 40.16 56.9113 40.32 56.7513 40.4C55.3112 41.68 53.7912 42.88 52.3512 44.16C50.5112 45.84 48.8312 47.68 47.3912 49.68C46.8312 50.56 46.2712 51.36 46.2712 52.48ZM63.9519 37.52C63.3919 37.52 62.6719 37.04 62.5119 36.56C62.3519 36.16 62.5119 35.2 62.8319 34.88C62.9919 34.72 63.2319 34.64 63.3919 34.8C63.6319 34.96 63.4719 35.12 63.3919 35.28C63.1519 35.68 62.8319 36.24 63.3119 36.64C63.7919 37.04 64.2719 36.72 64.7519 36.48C65.0719 36.32 65.3119 36.08 65.5519 35.92C65.7919 35.76 65.7919 35.6 65.4719 35.52C64.9919 35.52 64.5119 35.28 64.4319 34.8C64.3519 34.32 64.8319 34 65.2319 33.68C66.1919 33.04 67.0719 33.36 67.4719 34.4C67.5519 34.64 67.6319 34.88 67.8719 34.88C68.8319 35.04 69.8719 34.96 70.9119 34.96C71.2319 34.96 71.6319 34.88 72.0319 34.88C72.1119 34.88 72.3519 34.8 72.3519 35.04C72.3519 35.2 72.1919 35.2 72.0319 35.28C70.5119 35.44 69.0719 35.76 67.7119 35.44C67.3119 35.36 66.9919 35.6 66.7519 35.92C66.1919 36.56 65.5519 36.96 64.8319 37.28C64.5119 37.44 64.2719 37.52 63.9519 37.52ZM82.9306 34.96C82.6906 35.28 82.4506 35.36 82.1306 35.52C79.6506 36.24 77.1706 36.96 74.6906 37.6C74.0506 37.84 73.4906 37.84 72.8506 37.92C72.2906 37.92 71.7306 37.68 71.4106 37.12C71.0906 36.64 71.3306 36.08 71.6506 35.68C71.9706 35.2 72.3706 34.72 72.7706 34.24C72.8506 34.08 73.0106 34 73.2506 34C73.4906 33.92 73.6506 33.92 73.8106 34.16C73.8906 34.4 73.8106 34.56 73.6506 34.72C73.1706 35.2 72.6906 35.6 72.2906 36.16C72.1306 36.4 71.9706 36.64 72.1306 36.96C72.2906 37.28 72.6906 37.28 72.9306 37.2C74.4506 37.04 75.8906 36.56 77.3306 36.16C79.0906 35.76 80.8506 35.36 82.6106 34.88C82.6906 34.88 82.7706 34.8 82.9306 34.96ZM83.0013 34.4C83.0013 34.8 83.0813 35.12 83.0813 35.36C83.0013 35.76 82.7613 36.08 82.6813 36.48C82.5213 36.88 82.6813 37.12 83.0813 36.96C84.3613 36.56 85.5613 36.08 86.7613 35.6C87.2413 35.44 87.5612 35.12 87.9613 34.96C88.1213 34.88 88.3613 34.96 88.5213 34.88C88.5213 34.96 88.5213 35.04 88.5213 35.12C88.2813 35.28 88.0413 35.44 87.8013 35.52C86.6013 36.16 85.3213 36.8 84.1213 37.36C83.5613 37.6 83.0013 37.76 82.3613 37.44C82.0412 37.28 81.8012 36.96 81.8812 36.48C82.1212 35.92 82.3613 35.28 82.6013 34.72C82.6813 34.64 82.7613 34.64 83.0013 34.4ZM83.7213 32.56C83.8013 32.24 83.8013 31.92 83.8813 31.6C83.8813 31.52 84.1213 31.52 84.2013 31.52C84.2813 31.52 84.3613 31.68 84.2813 31.76C84.2013 32.08 84.0413 32.32 83.9613 32.64C83.8813 32.64 83.8013 32.64 83.7213 32.56ZM100.626 35.12C100.146 35.12 99.8263 35.2 99.4263 35.36C97.1863 36.4 94.7063 36.88 92.3063 37.36C91.5063 37.52 90.7063 37.44 90.2263 36.64C90.0663 36.4 89.9863 36.48 89.8263 36.64C89.5863 36.88 89.2663 37.12 89.0263 37.44C88.4663 37.84 87.9863 37.76 87.6662 37.12C87.1862 36.16 87.4262 35.12 88.4663 34.64C88.7863 34.48 89.1063 34.24 89.4263 34.08C89.7463 33.92 89.9863 34 90.1463 34.24C90.3863 34.48 90.4663 34.64 90.0663 34.8C89.5063 34.88 89.1063 35.2 88.6263 35.44C88.4663 35.6 88.3063 35.76 88.2263 36C88.2263 36.24 88.2263 36.48 88.3863 36.56C88.6263 36.8 88.7063 36.48 88.7863 36.4C89.4263 35.92 89.9863 35.36 90.5462 34.88C90.7863 34.64 90.9463 34.48 91.2663 34.72C91.5063 34.88 91.5063 35.12 91.3463 35.44C91.1863 35.76 90.8663 36.08 91.1063 36.4C91.4263 36.72 91.8263 36.64 92.2263 36.56C94.7863 36.24 97.2663 35.52 99.7463 34.88C100.066 34.8 100.386 34.56 100.626 35.04V35.12ZM99.2975 37.6C99.0575 36.56 99.7775 35.68 100.098 34.72C100.978 32 102.178 29.52 103.618 27.12C104.338 25.84 105.217 24.72 106.018 23.52C107.618 21.2 109.298 18.96 110.978 16.64C112.658 14.4 114.498 12.16 116.338 10C117.698 8.4 119.058 6.8 120.578 5.28C121.298 4.56 121.938 3.84 122.738 3.28C122.898 3.12 123.138 2.96 123.378 2.8C123.858 2.56 124.258 2.56 124.658 2.88C124.978 3.2 124.978 3.6 124.898 4C124.578 5.52 123.858 6.88 123.058 8.24C122.258 9.76 121.378 11.2 120.338 12.56C119.458 13.84 118.578 15.2 117.538 16.4C116.818 17.2 116.178 18.16 115.458 19.12C114.418 20.48 113.298 21.84 112.258 23.28C109.858 26.64 106.978 29.6 104.178 32.64C103.058 33.84 101.938 34.96 100.658 36.08C100.098 36.56 99.7775 37.92 100.098 38.64C100.338 39.04 100.658 39.12 101.058 39.04C101.778 38.96 102.418 38.56 102.978 38.16C104.338 37.2 105.618 36.16 106.978 35.12C107.058 35.04 107.218 34.8 107.378 34.96C107.538 35.12 107.298 35.28 107.138 35.36C105.778 36.4 104.578 37.6 103.298 38.72C102.738 39.12 102.178 39.44 101.538 39.6C100.178 39.92 99.3775 39.2 99.2975 37.6ZM124.338 3.52C124.338 3.12 124.018 2.96 123.618 3.2C122.498 3.84 121.778 4.8 120.978 5.6C119.378 7.28 117.858 8.96 116.418 10.64C114.978 12.48 113.458 14.24 112.018 16.08C110.418 18.24 108.818 20.48 107.298 22.72C105.698 25.12 104.018 27.52 102.738 30.08C102.098 31.44 101.538 32.8 100.978 34.16C100.898 34.32 100.738 34.56 100.978 34.72C101.218 34.8 101.298 34.56 101.458 34.4C102.978 32.96 104.418 31.36 105.858 29.76C108.258 27.36 110.338 24.72 112.498 22.08C113.858 20.32 115.218 18.48 116.658 16.72C119.138 13.52 121.458 10.24 123.298 6.64C123.778 5.68 124.178 4.64 124.338 3.52ZM5.2 95.6C5.68 95.36 6.08 95.04 6.64 94.8C6.8 94.72 7.04 94.64 7.28 94.64C8 94.64 8.16 94.8 8.16 95.44C8.16 96.16 8.24 96.16 8.88 96.08C9.76 95.92 10.56 95.52 11.28 95.12C11.52 94.96 11.84 94.72 12.08 94.96C12.24 95.2 11.92 95.44 11.68 95.6C10.8 96.16 9.84 96.72 8.8 96.8C7.92 96.96 7.44 96.48 7.28 95.68C7.2 95.36 7.04 95.44 6.8 95.52C6.16 95.76 5.68 96.24 5.12 96.64C4.8 96.96 4.4 97.2 4.08 97.52C3.84 97.68 3.52 97.68 3.28 97.44C3.04 97.2 3.12 96.96 3.28 96.72C3.68 96.16 4.08 95.68 4.16 94.96C4.24 94.64 4.72 94.56 5.04 94.64C5.36 94.72 5.28 95.04 5.2 95.28C5.2 95.36 5.12 95.44 5.2 95.6ZM21.7475 94.96C19.7475 95.84 17.6675 96.64 15.5875 97.28C14.7875 97.44 14.0675 97.68 13.2675 97.84C12.5475 97.92 11.9075 97.76 11.2675 97.44C10.6275 97.2 10.4675 96.64 10.3875 96C10.3875 95.84 10.4675 95.68 10.5475 95.6C11.1075 94.96 11.7475 94.32 12.5475 93.92C13.1075 93.52 13.7475 93.6 14.0675 94.16C14.3075 94.64 14.1475 95.12 13.5875 95.52C13.0275 95.84 12.3875 96.08 11.7475 96.32C11.5875 96.32 11.3475 96.32 11.3475 96.48C11.3475 96.72 11.5075 96.88 11.6675 96.96C12.1475 97.2 12.7075 97.2 13.1875 97.12C14.7075 96.88 16.1475 96.4 17.6675 95.92C18.7875 95.6 19.9875 95.2 21.1075 94.88C21.3475 94.8 21.5075 94.8 21.7475 94.88V94.96ZM31.3569 94.88C30.6369 95.84 29.5969 96.4 28.7169 97.2C27.5169 98.16 26.3169 99.2 25.1169 100.16C24.0769 101.04 22.9569 101.76 21.7569 102.4C21.0369 102.72 20.2369 102.56 19.5969 102.08C18.8769 101.6 18.5569 100.88 18.6369 100C18.8769 98.48 19.5169 97.12 20.3169 95.84C22.4769 92.08 25.1169 88.64 27.7569 85.28C27.9169 85.04 28.1569 84.88 27.9969 84.64C27.9169 84.48 27.5969 84.56 27.3569 84.56C25.9969 84.72 24.5569 84.72 23.1169 84.88C20.3969 85.12 17.7569 85.36 15.0369 85.68C11.9169 86.16 8.79687 86.48 5.67687 86.88C4.23687 87.12 2.79687 87.28 1.35687 87.04C1.03687 87.04 0.636875 86.88 0.396873 86.64C0.316874 86.48 0.156874 86.4 0.236875 86.24C0.316874 86.16 0.476874 86.16 0.556873 86.24C1.35687 86.24 2.15687 86.16 2.87687 86.24C5.43687 86.64 7.91687 85.92 10.4769 85.68C13.9969 85.36 17.5169 84.8 21.1169 84.48C23.5169 84.32 25.9169 84.16 28.3969 83.92C28.7169 83.92 28.9569 83.76 29.1169 83.52C30.0769 82.32 31.1169 81.2 32.0769 80C32.6369 79.36 33.1969 78.72 33.7569 78.08C33.8369 77.92 33.9169 77.84 34.0769 77.76C34.3169 77.52 34.6369 77.44 34.9569 77.68C35.2769 77.84 35.1169 78.16 35.0369 78.48C34.6369 79.2 34.1569 79.92 33.6769 80.56C33.0369 81.44 32.3169 82.32 31.6769 83.2C31.5169 83.28 31.3569 83.44 31.4369 83.6C31.5169 83.84 31.7569 83.76 31.9169 83.76C34.9569 83.76 38.0769 83.68 41.1169 83.76C44.6369 83.84 48.2369 84.08 51.7569 84.72C52.3169 84.88 52.7969 84.96 53.3569 85.44C52.5569 85.36 51.8369 85.12 51.1969 85.04C48.4769 84.72 45.7569 84.48 43.0369 84.4C40.7969 84.32 38.6369 84.16 36.3969 84.24C34.7169 84.24 33.0369 84.32 31.3569 84.32C30.7969 84.32 30.3969 84.56 30.0769 85.04C28.6369 86.8 27.1969 88.56 25.6769 90.24C24.5569 91.52 23.3569 92.64 22.3169 94C21.0369 95.76 19.9169 97.68 19.3569 99.92C19.1969 100.56 19.3569 101.2 19.9169 101.6C20.5569 102.08 21.1969 102 21.8369 101.68C22.8769 101.04 23.9169 100.32 24.9569 99.6C27.0369 97.92 28.9569 96.48 30.9569 94.96C31.0369 94.88 31.1969 94.8 31.3569 94.88ZM34.3969 78.4C34.1569 78.32 34.0769 78.48 33.9969 78.56C33.4369 79.2 32.7969 79.84 32.2369 80.56C31.5169 81.44 30.7169 82.4 29.9969 83.36C29.9169 83.52 29.7569 83.6 29.9169 83.76C30.0769 83.92 30.2369 83.84 30.3169 83.76C30.4769 83.68 30.5569 83.6 30.6369 83.52C31.7569 82.08 33.0369 80.72 33.9969 79.2C34.1569 78.96 34.3969 78.72 34.3969 78.4ZM26.2369 88.4C27.3569 87.36 28.3169 86.16 29.2769 85.04C29.4369 84.88 29.6769 84.72 29.5169 84.56C29.2769 84.32 29.0369 84.56 28.8769 84.72C28.7969 84.8 28.7969 84.88 28.7169 84.96C27.8369 86.08 26.9569 87.2 26.2369 88.4ZM42.7969 95.28C41.9169 95.44 41.0369 95.68 40.1569 95.84C39.6769 95.92 39.2769 96.08 38.7969 96.08C37.9969 96.08 37.4369 96.56 36.9569 97.12C36.3969 98 35.9169 98.48 34.9569 98.88C34.5569 99.04 34.0769 99.12 33.5969 98.96C33.1169 98.72 32.7169 98.48 32.7169 97.84C32.7169 97.52 32.6369 97.36 32.3169 97.6C32.1569 97.76 31.9169 97.92 31.7569 98C31.1169 98.4 30.6369 98.24 30.1569 97.76C29.9969 97.6 29.9169 97.36 29.9969 97.12C30.2369 96.48 30.3969 95.76 30.7969 95.12C30.9569 94.88 31.1169 94.64 31.4369 94.88C31.7569 95.12 31.7569 95.28 31.5969 95.6C31.2769 96 31.1969 96.48 31.0369 96.88C30.9569 97.04 30.8769 97.12 31.0369 97.2C31.1169 97.28 31.1969 97.2 31.2769 97.12C31.9969 96.72 32.6369 96.24 33.1169 95.76C33.3569 95.52 33.5969 95.44 33.8369 95.68C34.1569 95.84 34.1569 96.08 33.9969 96.32C33.6769 96.8 33.6769 97.36 33.6769 97.84C33.6769 98.16 33.8369 98.32 34.0769 98.16C35.2769 97.68 35.9969 97.2 36.7169 96.08C36.7969 95.84 36.7169 95.68 36.5569 95.6C36.2369 95.28 36.0769 94.96 36.1569 94.56C36.2369 94.16 36.6369 93.92 37.0369 94.08C37.4369 94.24 37.8369 94.4 37.9969 94.88C38.0769 95.36 38.3969 95.44 38.7969 95.36C40.0769 95.2 41.3569 94.96 42.5569 94.88C42.6369 94.88 42.7169 94.88 42.7969 94.88C42.9569 94.88 43.3569 94.8 43.3569 95.12C43.3569 95.44 42.9569 95.28 42.7969 95.28ZM44.1081 97.52C43.5481 97.52 42.8281 97.04 42.6681 96.56C42.5081 96.16 42.6681 95.2 42.9881 94.88C43.1481 94.72 43.3881 94.64 43.5481 94.8C43.7881 94.96 43.6281 95.12 43.5481 95.28C43.3081 95.68 42.9881 96.24 43.4681 96.64C43.9481 97.04 44.4281 96.72 44.9081 96.48C45.2281 96.32 45.4681 96.08 45.7081 95.92C45.9481 95.76 45.9481 95.6 45.6281 95.52C45.1481 95.52 44.6681 95.28 44.5881 94.8C44.5081 94.32 44.9881 94 45.3881 93.68C46.3481 93.04 47.2281 93.36 47.6281 94.4C47.7081 94.64 47.7881 94.88 48.0281 94.88C48.9881 95.04 50.0281 94.96 51.0681 94.96C51.3881 94.96 51.7881 94.88 52.1881 94.88C52.2681 94.88 52.5081 94.8 52.5081 95.04C52.5081 95.2 52.3481 95.2 52.1881 95.28C50.6681 95.44 49.2281 95.76 47.8681 95.44C47.4681 95.36 47.1481 95.6 46.9081 95.92C46.3481 96.56 45.7081 96.96 44.9881 97.28C44.6681 97.44 44.4281 97.52 44.1081 97.52ZM55.4069 98.72C54.7669 98.64 54.2069 98.48 53.8869 97.92C53.5669 97.28 53.8869 96.8 54.2869 96.32C54.6069 95.92 54.9269 95.44 55.3269 95.04C55.4069 94.88 55.4869 94.8 55.4069 94.64C55.2469 94.56 55.1669 94.64 55.0869 94.72C54.2869 94.96 53.4869 95.2 52.6869 95.36C52.3669 95.44 52.1269 95.44 51.8069 95.36C51.0869 95.12 50.9269 94.72 51.3269 94.08C52.1269 92.8 53.1669 91.76 54.3669 90.8C54.4469 90.72 54.6069 90.64 54.6869 90.56C55.0069 90.4 55.2469 90.48 55.5669 90.72C55.8069 90.88 55.7269 91.2 55.6469 91.44C55.3269 92.16 54.9269 92.8 54.5269 93.44C54.4469 93.6 54.2069 93.76 54.3669 93.92C54.4469 94.08 54.6869 94 54.8469 93.92C55.4069 93.76 55.9669 93.52 56.5269 93.36C56.8469 93.28 57.1669 93.28 57.3269 93.6C57.5669 93.92 57.3269 94.08 57.0869 94.32C56.2069 95.12 55.4069 96.08 54.7669 97.04C54.6069 97.28 54.4469 97.44 54.5269 97.68C54.6869 98 55.0069 98 55.2469 98C56.3669 97.84 57.4069 97.36 58.3669 96.8C59.2469 96.32 60.1269 95.92 60.8469 95.2C61.0869 94.96 61.4069 94.96 61.6469 94.88C61.8069 94.88 61.8869 94.88 61.8869 94.96C61.8869 95.04 61.8869 95.12 61.8069 95.2C59.9669 96.64 58.1269 98.16 55.8069 98.64C55.6469 98.64 55.4869 98.64 55.4069 98.72ZM52.2069 94.64C52.6069 94.64 52.6869 94.24 52.9269 94.08C53.7269 93.44 54.2069 92.56 54.7669 91.76C54.8469 91.68 54.9269 91.52 54.7669 91.44C54.6869 91.36 54.6069 91.44 54.5269 91.52C53.7269 92.24 52.9269 92.8 52.3669 93.68C52.2069 93.84 52.1269 94.08 52.0469 94.32C51.9669 94.48 52.0469 94.64 52.2069 94.64ZM61.3456 96.96C61.6656 96.96 61.7456 96.8 61.8256 96.64C62.7856 95.52 63.9856 94.72 65.2656 94.08C65.3456 94 65.5056 93.92 65.5856 93.92C65.7456 93.92 65.9056 94 65.9856 94.16C66.0656 94.32 65.9056 94.4 65.7456 94.48C64.6256 95.04 63.6656 95.84 62.7056 96.8C62.5456 96.88 62.3056 97.04 62.4656 97.28C62.5456 97.52 62.7856 97.36 63.0256 97.28C65.4256 96.72 67.8256 95.92 70.1456 94.96C70.3056 94.88 70.5456 94.72 70.6256 94.96C70.7056 95.12 70.5456 95.28 70.3856 95.36C69.6656 95.84 68.7856 96.08 67.9856 96.4C66.7856 96.96 65.5056 97.44 64.2256 97.76C63.5056 98 62.8656 98 62.1456 98C61.8256 98 61.5856 98 61.3456 97.68C61.1856 97.44 61.0256 97.6 61.0256 97.84C60.8656 98.48 60.7056 99.12 60.7056 99.76C60.7056 100.56 61.1056 100.88 61.9056 100.72C62.3056 100.56 62.6256 100.48 62.9456 100.16C63.0256 100.08 63.1856 100 63.2656 100.08C63.4256 100.24 63.3456 100.4 63.2656 100.48C62.7856 101.12 61.7456 101.44 60.9456 101.2C60.3056 100.96 59.9056 100.4 59.9856 99.52C60.1456 98.32 60.3856 97.12 60.8656 96C61.4256 94.56 61.9056 93.04 62.5456 91.6C64.3056 87.84 66.2256 84.16 68.5456 80.72C69.8256 78.8 71.0256 76.8 72.3056 74.88C73.9056 72.4 75.7456 70.08 77.5856 67.76C79.9056 64.8 82.2256 61.84 85.0256 59.28C85.6656 58.72 86.3056 58.16 87.0256 57.6C87.4256 57.28 87.9056 57.04 88.4656 57.12C89.0256 57.12 89.3456 57.44 89.2656 58C89.1856 58.88 88.9456 59.6 88.5456 60.32C87.1056 62.72 85.6656 65.12 83.9856 67.36C82.9456 68.8 81.9056 70.32 80.7856 71.76C79.5856 73.36 78.3856 74.88 77.1856 76.48C75.9856 78 74.7056 79.52 73.5056 81.04C72.2256 82.72 70.9456 84.4 69.5856 86.08C67.5856 88.56 65.5856 90.96 63.5856 93.44C62.8656 94.4 62.1456 95.28 61.5856 96.32C61.4256 96.48 61.3456 96.72 61.3456 96.96ZM62.7856 93.12C63.0256 93.04 63.1056 92.88 63.1856 92.8C64.0656 91.68 64.9456 90.56 65.8256 89.52C67.1856 87.84 68.5456 86.16 69.9056 84.56C71.4256 82.8 72.7056 80.96 74.1456 79.2C76.4656 76.32 78.8656 73.44 81.0256 70.48C83.1856 67.52 85.3456 64.56 87.2656 61.36C87.8256 60.4 88.4656 59.44 88.6256 58.24C88.7056 58 88.7856 57.76 88.5456 57.6C88.3056 57.36 88.0656 57.6 87.9056 57.68C86.0656 58.64 84.7856 60.24 83.3456 61.68C81.7456 63.28 80.3056 65.04 78.9456 66.88C77.6656 68.56 76.3056 70.24 75.0256 71.92C74.1456 73.12 73.3456 74.32 72.5456 75.52C71.0256 77.84 69.6656 80.16 68.1456 82.48C66.2256 85.52 64.6256 88.72 63.1856 91.92C63.0256 92.32 62.8656 92.64 62.7856 93.12ZM61.2137 113.84C59.9337 113.84 59.4537 113.12 59.6937 112C59.8537 111.12 60.3337 110.4 60.8137 109.68C62.5737 107.04 64.7337 104.72 67.1337 102.72C68.4937 101.68 69.7737 100.56 71.0538 99.44C71.2938 99.28 71.2938 99.04 71.2938 98.8C71.1338 97.76 70.8938 96.8 70.4938 95.84C70.3338 95.44 70.1738 95.04 70.1738 94.64C69.9337 93.52 70.8938 92.4 72.0938 92.56C72.1738 92.56 72.3338 92.56 72.4138 92.64C72.5738 92.64 72.6538 92.72 72.5738 92.8C72.5738 92.96 72.4938 92.96 72.4138 92.96C72.0938 92.96 71.8538 93.04 71.6138 93.12C70.7338 93.6 70.6538 93.92 70.8938 94.88C71.2138 96 71.7738 97.12 71.9338 98.32C72.0138 98.72 72.2538 98.48 72.4138 98.4C73.6138 97.52 74.7338 96.64 75.8538 95.76C76.2538 95.52 76.6538 95.2 77.0538 94.96C77.2138 94.8 77.3738 94.8 77.4538 94.96C77.6138 95.12 77.5338 95.2 77.4538 95.36C77.3738 95.44 77.2138 95.52 77.1338 95.6C75.4538 96.72 73.9338 98 72.3338 99.28C72.1738 99.36 72.0138 99.52 72.0138 99.84C72.1738 102.88 70.9738 105.52 69.1337 107.92C68.0937 109.28 66.8937 110.48 65.6137 111.6C64.4937 112.56 63.2137 113.36 61.7737 113.76C61.5337 113.84 61.2937 113.84 61.2137 113.84ZM60.3337 112.48C60.2537 113.36 60.4937 113.52 61.2937 113.36C62.0137 113.2 62.5737 112.96 63.2137 112.64C65.4537 111.28 67.2937 109.52 68.8137 107.44C70.1738 105.44 71.2138 103.2 71.3738 100.8C71.3738 100.56 71.5338 100.4 71.2938 100.24C71.0538 100.16 70.9738 100.32 70.8138 100.4C69.3737 101.68 67.8537 102.88 66.4137 104.16C64.5737 105.84 62.8937 107.68 61.4537 109.68C60.8937 110.56 60.3337 111.36 60.3337 112.48Z" fill="white"/>
</svg>
